<?xml version="1.0" encoding="UTF-8" standalone="no"?>
<svg
   width="1024"
   height="620"
   viewBox="0 0 270.93 164.04"
   version="1.1"
   id="svg25"
   sodipodi:docname="back.svg"
   inkscape:version="1.3 (0e150ed6c4, 2023-07-21)"
   inkscape:export-filename="back.svg"
   inkscape:export-xdpi="96"
   inkscape:export-ydpi="96"
   xmlns:inkscape="http://www.inkscape.org/namespaces/inkscape"
   xmlns:sodipodi="http://sodipodi.sourceforge.net/DTD/sodipodi-0.dtd"
   xmlns="http://www.w3.org/2000/svg"
   xmlns:svg="http://www.w3.org/2000/svg">
  <defs
     id="defs25" />
  <sodipodi:namedview
     id="namedview25"
     pagecolor="#ffffff"
     bordercolor="#000000"
     borderopacity="0.25"
     inkscape:showpageshadow="2"
     inkscape:pageopacity="0.0"
     inkscape:pagecheckerboard="0"
     inkscape:deskcolor="#d1d1d1"
     inkscape:zoom="0.60456249"
     inkscape:cx="896.51609"
     inkscape:cy="533.44362"
     inkscape:window-width="2560"
     inkscape:window-height="1494"
     inkscape:window-x="-11"
     inkscape:window-y="-11"
     inkscape:window-maximized="1"
     inkscape:current-layer="svg25" />
  <g
     fill="#e6f4fa"
     id="g3"
     style="display:inline">
    <path
       id="path1"
       style="display:inline"
       d="M -0.57492641,79.545758 V 163.78679 H 270.98093 V 79.545758 Z" />
    <path
       id="path2"
       d="m 268.09122,61.786815 c -1.45534,0 -2.77395,0.300195 -3.95528,0.900195 v 26.842016 h 6.76283 V 62.275669 c -0.88456,-0.290269 -1.80603,-0.488854 -2.80755,-0.488854 z"
       style="display:inline" />
    <path
       id="path3"
       d="m 68.283594,24.786794 c -5.970661,0 -11.063687,1.962257 -15.279016,5.88692 -1.949331,1.816664 -3.449055,3.809938 -4.498387,5.979936 -0.582,-0.114667 -1.19463,-0.172081 -1.838629,-0.172081 -2.319331,0 -4.307985,0.763244 -5.965984,2.289242 -1.551998,1.446666 -2.368037,3.188287 -2.447371,5.224951 -0.0087,0.106 -0.01292,0.220829 -0.01292,0.344162 0,0.220666 0.009,0.440935 0.02636,0.660935 0.07933,0.934666 0.321597,1.816474 0.727597,2.645806 -0.291333,0.590666 -0.498328,1.216937 -0.621661,1.878936 -2.160665,0.961333 -4.158707,2.297319 -5.993372,4.007984 -0.775999,0.723332 -1.485565,1.481957 -2.129564,2.27529 -1.313999,-0.784666 -2.809471,-1.177177 -4.485469,-1.177177 -2.337331,0 -4.325985,0.767496 -5.965983,2.302161 -1.225999,1.137999 -1.992979,2.45184 -2.301645,3.941839 h -0.42323 c -3.35133,0 -6.429304,0.62627 -9.2339678,1.878936 -1.1906655,-0.590667 -2.500254,-0.885725 -3.9289193,-0.885725 -1.4553318,0 -2.7739418,0.299678 -3.95527394,0.899677 V 89.610603 H 264.53629 V 63.612454 c -0.062,-2.716664 -1.05864,-5.040266 -2.98997,-6.971597 -1.72,-1.719998 -3.74392,-2.699259 -6.07192,-2.937259 -0.37048,-0.537569 -0.79777,-1.048761 -1.28208,-1.533741 -2.002,-2.001998 -4.41366,-3.003403 -7.23566,-3.003403 -1.19933,0 -2.32869,0.185366 -3.38736,0.556033 -1.41133,0.485332 -2.6899,1.301372 -3.8359,2.44737 -1.596,1.595999 -2.55311,3.46132 -2.87111,5.595984 -1.83467,0.229334 -3.57203,0.670238 -5.21203,1.322904 -0.406,-1.057999 -1.06718,-2.010495 -1.98384,-2.857161 -1.64067,-1.534665 -3.62932,-2.301645 -5.96598,-2.301645 -2.33734,0 -4.33486,0.76698 -5.99286,2.301645 -0.238,0.229333 -0.4634,0.472114 -0.6754,0.728113 -4.092,-3.571996 -8.98639,-5.357758 -14.68371,-5.357758 -1.15534,0 -2.27956,0.07904 -3.37289,0.237709 -0.0793,-0.088 -0.16314,-0.171811 -0.25114,-0.251144 -1.64067,-1.534666 -3.62932,-2.301645 -5.96599,-2.301645 -1.332,0 -2.55829,0.255537 -3.67829,0.76687 h -0.0129 c 0,-0.044 0.004,-0.08777 0.0129,-0.131773 0.0173,-0.176667 0.0264,-0.353162 0.0264,-0.529162 v -0.185 -0.278016 c -0.0707,-2.054665 -0.89558,-3.818798 -2.47425,-5.29213 -1.64933,-1.534665 -3.63798,-2.302161 -5.96598,-2.302161 -0.52067,0 -1.01473,0.04004 -1.48207,0.119371 -0.38799,-1.225999 -1.10233,-2.319571 -2.14299,-3.280903 -1.64067,-1.534665 -3.62932,-2.302162 -5.96599,-2.302162 -2.33733,0 -4.32598,0.767497 -5.96598,2.302162 -1.12867,1.049332 -1.87402,2.248344 -2.23602,3.597676 -3.65133,0.696666 -6.91005,2.25754 -9.77605,4.682871 -1.464,-1.067332 -3.17497,-1.600919 -5.13296,-1.600919 -2.33734,0 -4.33061,0.767496 -5.97994,2.302161 -1.19933,1.111332 -1.96206,2.403545 -2.28873,3.87621 -1.45533,-0.282 -2.97243,-0.423226 -4.55109,-0.423226 -0.494,0 -0.99232,0.01789 -1.49499,0.05323 -0.36133,-1.322665 -1.09781,-2.504818 -2.20914,-3.545484 -1.64067,-1.534665 -3.62932,-2.301644 -5.96599,-2.301644 -2.33733,0 -4.3306,0.766979 -5.97993,2.301644 -0.062,0.062 -0.11516,0.119415 -0.15916,0.172081 -0.91734,-1.428665 -2.04618,-2.76927 -3.38684,-4.021936 -4.21533,-3.924662 -9.2956,-5.891171 -15.24026,-5.899838 -0.406,-0.917332 -1.014379,-1.750748 -1.825711,-2.50008 -1.649332,-1.534665 -3.642605,-2.302162 -5.979936,-2.302162 -0.793999,0 -1.534732,0.08843 -2.222064,0.265097 -0.158667,-1.895998 -0.983577,-3.536431 -2.474243,-4.921096 -1.640665,-1.525999 -3.629319,-2.288726 -5.965983,-2.288726 -1.666665,0 -3.14798,0.38349 -4.444645,1.150822 -2.87533,-1.322665 -6.045988,-1.983838 -9.511984,-1.983838 z"
       style="display:inline" />
  </g>
  <path
     d="M 22.407,97.612 18.385,96.88 10.068,107.969 57.81,116.66 49.521,92.283 46.803,91.788 44.654,72.55 36.199,71.011 Z m 201.364,-0.501 -4.062,0.462 -4.757,13.02 48.215,-5.48 -14.981,-20.94 -2.745,0.312 -7.617,-17.796 -8.539,0.97 z m -134.688,0.896 -3.826,0.675 -1.854,21.389 41.512,-7.325 -10.427,-5.627 -3.281,0.579 -11.035,-23.453 -8.873,1.566 z m 70.545,-29.332 -3.179,-0.233 -4.94,16.254 -4.145,-0.303 -7.61,24.086 41.438,3.033 -4.532,-13.419 -4.697,-0.344 -1.222,-40.363 -6.918,-0.506 z"
     fill="#d5edf7"
     id="path4"
     style="display:inline" />
  <g
     transform="matrix(0.3379,0.034423,-0.033664,0.25574,112.96,185.77)"
     id="g10"
     style="display:inline">
    <path
       d="m 355.85,-351.95 -1.25,24.1 h 43.5 l -5,-21.15 -37.25,-2.95 m -82.6,24.1 -1.25,-24.55 -37.25,3.4 -2.15,21.15 z"
       fill="#a4afaf"
       id="path5" />
    <path
       d="m 288.5,-380.55 2.85,52.7 h 44.4 l 3.75,-56.4 z"
       fill="#5b6666"
       id="path6" />
    <path
       d="m 277.05,-395.5 v 67.65 h 14.3 l -2.85,-52.7 51,-3.7 -3.75,56.4 h 13.8 v -69.8 l -72.5,2.15 m -36.35,-31.1 2.1,15.7 13.05,-1.8 -2.2,-15.65 q -0.3,-2.7 -2.5,-4.35 -2.15,-1.7 -4.85,-1.3 -2.65,0.35 -4.3,2.55 -1.65,2.15 -1.3,4.85 m 88.6,11.65 -3.35,-14.5 h -23.6 l -5.5,15.3 -6.75,0.1 -4.65,-15.4 h -8.4 v 27 l 72.5,-3.9 v -23.1 h -11.8 l -1.8,14.35 -6.65,0.15 m 57.9,-16.7 q -2.05,-2.7 -5.35,-3.1 -3.3,-0.45 -5.95,1.65 -2.7,2.05 -3.15,5.35 l -2.45,19.35 16.05,2.05 2.45,-19.35 q 0.45,-3.3 -1.6,-5.95 z"
       fill="#7e8787"
       id="path7" />
    <path
       d="m 234.9,-509.55 -16.1,60.6 q 19.95,-14.7 46.95,-10.65 l -30.85,-49.95 m 174.15,60.6 -16.1,-60.6 -30.85,49.95 q 27,-4.05 46.95,10.65 z"
       fill="#d26f49"
       id="path8" />
    <path
       d="m 277.05,-429.45 h -9 l 3.95,77.05 1.25,24.55 h 3.8 v -101.6 m 72.5,0 v 101.6 h 5.05 l 1.25,-24.1 3.95,-77.5 z"
       fill="#767e7e"
       id="path9" />
    <path
       d="m 212.15,-443.4 14.35,18.55 8.25,75.85 37.25,-3.4 -3.95,-77.05 -0.25,-5.1 8.8,-22.75 q -1.1,-0.3 -2.25,-0.6 -4.4,-1.1 -8.6,-1.7 -27,-4.05 -46.95,10.65 -3.45,2.5 -6.65,5.55 m 30.65,32.5 -2.1,-15.7 q -0.35,-2.7 1.3,-4.85 1.65,-2.2 4.3,-2.55 2.7,-0.4 4.85,1.3 2.2,1.65 2.5,4.35 l 2.2,15.65 -13.05,1.8 m 106.75,13.25 v -8.7 l -72.5,3.9 v 6.95 l 72.5,-2.15 m 7.5,-61.05 q -2.85,0.6 -5.8,1.4 l 8.8,22.75 -0.25,5.1 -3.95,77.5 37.25,2.95 8.25,-75.85 14.35,-18.55 q -3.2,-3.05 -6.65,-5.55 -19.95,-14.7 -46.95,-10.65 -2.45,0.35 -5.05,0.9 m 24.8,23.95 q 3.3,0.4 5.35,3.1 2.05,2.65 1.6,5.95 l -2.45,19.35 -16.05,-2.05 2.45,-19.35 q 0.45,-3.3 3.15,-5.35 2.65,-2.1 5.95,-1.65 z"
       fill="#95a1a1"
       id="path10" />
  </g>
  <path
     d="m 13.697,96.223 1.579,0.114 3.08,0.2 -4.021,-16.061 -3.29,15.567 z"
     fill="#448c5e"
     id="path11"
     style="display:inline" />
  <path
     d="M13.596 97.382l1.758-.152-.078-.893-1.579-.114z"
     fill="#6d503d"
     id="path12" />
  <path
     d="M13.596 97.382l-.264 3.013h2.279l-.257-3.165z"
     fill="#795b48"
     id="path13" />
  <path
     d="M72.629 109.15l2.527.149 4.93.261-6.437-20.98-5.267 20.334z"
     fill="#448c5e"
     id="path14" />
  <path
     d="M72.468 110.664l2.814-.199-.125-1.167-2.527-.149z"
     fill="#6d503d"
     id="path15" />
  <path
     d="M72.468 110.664l-.423 3.935h3.648l-.411-4.134z"
     fill="#795b48"
     id="path16" />
  <g
     transform="matrix(0.15554,0,0,0.20404,79.023,136.42)"
     id="g24"
     style="display:inline">
    <path
       d="m 389.95,-184.55 10.15,0.6 19.8,1.05 -25.85,-84.5 -21.15,81.9 z"
       fill="#448c5e"
       id="path17" />
    <path
       d="m 389.3,-178.45 11.3,-0.8 -0.5,-4.7 -10.15,-0.6 z"
       fill="#6d503d"
       id="path18" />
    <path
       d="m 389.3,-178.45 -1.7,15.85 h 14.65 l -1.65,-16.65 z"
       fill="#795b48"
       id="path19" />
    <g
       transform="matrix(1.6857,-0.17352,0.22762,1.2851,-882.74,436.16)"
       id="g23"
       style="display:inline">
      <path
         d="m 760.6,-327.85 -8,-36 -46.5,-1 -5.5,37 z"
         fill="#a4afaf"
         id="path20" />
      <path
         d="m 695.6,-493.35 10.5,18.5 v 110 l 46.5,1 v -110.5 l 7.5,-17 q -4.4,-2.4 -8.8,-4.15 -23.6,-9.55 -47.2,-1.35 -4.25,1.45 -8.5,3.5 m 26,37.5 v -14.75 q 0,-3.2 2.25,-5.5 2.3,-2.25 5.5,-2.25 3.2,0 5.45,2.25 2.3,2.3 2.3,5.5 v 14.75 z"
         fill="#95a1a1"
         id="path21" />
      <path
         d="m 721.6,-470.6 v 14.75 h 15.5 v -14.75 q 0,-3.2 -2.3,-5.5 -2.25,-2.25 -5.45,-2.25 -3.2,0 -5.5,2.25 -2.25,2.3 -2.25,5.5 z"
         fill="#7e8787"
         id="path22" />
      <path
         d="m 727.1,-553.9 -23,57.05 q 23.6,-8.2 47.2,1.35 z"
         fill="#d26f49"
         id="path23" />
    </g>
  </g>
  <g
     fill="#b8d0a6"
     id="g25"
     style="display:inline"
     transform="translate(0.03868226,-0.0290117)">
    <path
       d="m 252.742,108.721 q -15.587,7.276 -31.891,1.146 -15.126,-5.702 -30.55,-10.41 -15.844,-4.818 -32.095,-1.56 -16.224,3.272 -31.024,10.424 -14.95,7.193 -31.634,7.317 -16.671,0.138 -32.244,-5.633 -15.126,-5.633 -30.848,-9.402 -16.4,-3.907 -32.61,0.621 v 30.374 h 271.056 v -30.374 q -9.243,3.341 -18.162,7.497 z"
       id="path24"
       style="display:inline" />
    <path
       id="path25"
       style="display:inline"
       d="m -0.04103962,128.66481 v 38.07068 H 270.90091 v -38.07068 z" />
  </g>
</svg>
