<svg xmlns="http://www.w3.org/2000/svg" width="1024" height="620" viewBox="0 0 270.93 164.04" xmlns:v="https://vecta.io/nano"><g fill="#e6f4fa"><path d="M-.575 79.546v84.241h271.556V79.546z"/><path d="M268.091 61.787c-1.455 0-2.774.3-3.955.9v26.842h6.763V62.276c-.885-.29-1.806-.489-2.808-.489z"/><path d="M68.284 24.787c-5.971 0-11.064 1.962-15.279 5.887-1.949 1.817-3.449 3.81-4.498 5.98-.582-.115-1.195-.172-1.839-.172-2.319 0-4.308.763-5.966 2.289-1.552 1.447-2.368 3.188-2.447 5.225-.009.106-.013.221-.013.344a8.4 8.4 0 0 0 .026.661c.079.935.322 1.816.728 2.646a7.21 7.21 0 0 0-.622 1.879c-2.161.961-4.159 2.297-5.993 4.008-.776.723-1.486 1.482-2.13 2.275-1.314-.785-2.809-1.177-4.485-1.177-2.337 0-4.326.767-5.966 2.302-1.226 1.138-1.993 2.452-2.302 3.942h-.423c-3.351 0-6.429.626-9.234 1.879-1.191-.591-2.5-.886-3.929-.886-1.455 0-2.774.3-3.955.9v26.842h264.58V63.612c-.062-2.717-1.059-5.04-2.99-6.972-1.72-1.72-3.744-2.699-6.072-2.937-.37-.538-.798-1.049-1.282-1.534-2.002-2.002-4.414-3.003-7.236-3.003-1.199 0-2.329.185-3.387.556-1.411.485-2.69 1.301-3.836 2.447-1.596 1.596-2.553 3.461-2.871 5.596-1.835.229-3.572.67-5.212 1.323-.406-1.058-1.067-2.01-1.984-2.857-1.641-1.535-3.629-2.302-5.966-2.302s-4.335.767-5.993 2.302c-.238.229-.463.472-.675.728-4.092-3.572-8.986-5.358-14.684-5.358a23.46 23.46 0 0 0-3.373.238c-.079-.088-.163-.172-.251-.251-1.641-1.535-3.629-2.302-5.966-2.302-1.332 0-2.558.256-3.678.767h-.013a.66.66 0 0 1 .013-.132 5.43 5.43 0 0 0 .026-.529v-.185-.278c-.071-2.055-.896-3.819-2.474-5.292-1.649-1.535-3.638-2.302-5.966-2.302a8.85 8.85 0 0 0-1.482.119c-.388-1.226-1.102-2.32-2.143-3.281-1.641-1.535-3.629-2.302-5.966-2.302s-4.326.767-5.966 2.302c-1.129 1.049-1.874 2.248-2.236 3.598-3.651.697-6.91 2.258-9.776 4.683-1.464-1.067-3.175-1.601-5.133-1.601-2.337 0-4.331.767-5.98 2.302-1.199 1.111-1.962 2.404-2.289 3.876a23.88 23.88 0 0 0-4.551-.423c-.494 0-.992.018-1.495.053-.361-1.323-1.098-2.505-2.209-3.545-1.641-1.535-3.629-2.302-5.966-2.302s-4.331.767-5.98 2.302c-.062.062-.115.119-.159.172-.917-1.429-2.046-2.769-3.387-4.022-4.215-3.925-9.296-5.891-15.24-5.9-.406-.917-1.014-1.751-1.826-2.5-1.649-1.535-3.643-2.302-5.98-2.302-.794 0-1.535.088-2.222.265-.159-1.896-.984-3.536-2.474-4.921-1.641-1.526-3.629-2.289-5.966-2.289-1.667 0-3.148.383-4.445 1.151-2.875-1.323-6.046-1.984-9.512-1.984z"/></g><path d="M22.407 97.612l-4.022-.732-8.317 11.089 47.742 8.691-8.289-24.377-2.718-.495-2.149-19.238-8.455-1.539zm201.364-.501l-4.062.462-4.757 13.02 48.215-5.48-14.981-20.94-2.745.312-7.617-17.796-8.539.97zm-134.688.896l-3.826.675-1.854 21.389 41.512-7.325-10.427-5.627-3.281.579-11.035-23.453-8.873 1.566zm70.545-29.332l-3.179-.233-4.94 16.254-4.145-.303-7.61 24.086 41.438 3.033-4.532-13.419-4.697-.344-1.222-40.363-6.918-.506z" fill="#d5edf7"/><g transform="matrix(.3379 .034423 -.033664 .25574 112.96 185.77)"><path d="M355.85-351.95l-1.25 24.1h43.5l-5-21.15-37.25-2.95m-82.6 24.1L272-352.4l-37.25 3.4-2.15 21.15z" fill="#a4afaf"/><path d="M288.5-380.55l2.85 52.7h44.4l3.75-56.4z" fill="#5b6666"/><path d="M277.05-395.5v67.65h14.3l-2.85-52.7 51-3.7-3.75 56.4h13.8v-69.8l-72.5 2.15m-36.35-31.1l2.1 15.7 13.05-1.8-2.2-15.65q-.3-2.7-2.5-4.35-2.15-1.7-4.85-1.3-2.65.35-4.3 2.55-1.65 2.15-1.3 4.85m88.6 11.65l-3.35-14.5h-23.6l-5.5 15.3-6.75.1-4.65-15.4h-8.4v27l72.5-3.9v-23.1h-11.8l-1.8 14.35-6.65.15m57.9-16.7q-2.05-2.7-5.35-3.1-3.3-.45-5.95 1.65-2.7 2.05-3.15 5.35l-2.45 19.35 16.05 2.05 2.45-19.35q.45-3.3-1.6-5.95z" fill="#7e8787"/><path d="M234.9-509.55l-16.1 60.6q19.95-14.7 46.95-10.65l-30.85-49.95m174.15 60.6l-16.1-60.6-30.85 49.95q27-4.05 46.95 10.65z" fill="#d26f49"/><path d="M277.05-429.45h-9L272-352.4l1.25 24.55h3.8v-101.6m72.5 0v101.6h5.05l1.25-24.1 3.95-77.5z" fill="#767e7e"/><path d="M212.15-443.4l14.35 18.55 8.25 75.85 37.25-3.4-3.95-77.05-.25-5.1 8.8-22.75q-1.1-.3-2.25-.6-4.4-1.1-8.6-1.7-27-4.05-46.95 10.65-3.45 2.5-6.65 5.55m30.65 32.5l-2.1-15.7q-.35-2.7 1.3-4.85 1.65-2.2 4.3-2.55 2.7-.4 4.85 1.3 2.2 1.65 2.5 4.35l2.2 15.65-13.05 1.8m106.75 13.25v-8.7l-72.5 3.9v6.95l72.5-2.15m7.5-61.05q-2.85.6-5.8 1.4l8.8 22.75-.25 5.1-3.95 77.5L393.1-349l8.25-75.85 14.35-18.55q-3.2-3.05-6.65-5.55-19.95-14.7-46.95-10.65-2.45.35-5.05.9m24.8 23.95q3.3.4 5.35 3.1 2.05 2.65 1.6 5.95l-2.45 19.35-16.05-2.05 2.45-19.35q.45-3.3 3.15-5.35 2.65-2.1 5.95-1.65z" fill="#95a1a1"/></g><path d="M13.697 96.223l1.579.114 3.08.2-4.021-16.061-3.29 15.567z" fill="#448c5e"/><path d="M13.596 97.382l1.758-.152-.078-.893-1.579-.114z" fill="#6d503d"/><path d="M13.596 97.382l-.264 3.013h2.279l-.257-3.165z" fill="#795b48"/><path d="M72.629 109.15l2.527.149 4.93.261-6.437-20.98-5.267 20.334z" fill="#448c5e"/><path d="M72.468 110.664l2.814-.199-.125-1.167-2.527-.149z" fill="#6d503d"/><path d="M72.468 110.664l-.423 3.935h3.648l-.411-4.134z" fill="#795b48"/><g transform="matrix(.15554 0 0 .20404 79.023 136.42)"><path d="M389.95-184.55l10.15.6 19.8 1.05-25.85-84.5-21.15 81.9z" fill="#448c5e"/><path d="M389.3-178.45l11.3-.8-.5-4.7-10.15-.6z" fill="#6d503d"/><path d="M389.3-178.45l-1.7 15.85h14.65l-1.65-16.65z" fill="#795b48"/><g transform="matrix(1.6857 -.17352 .22762 1.2851 -882.74 436.16)"><path d="M760.6-327.85l-8-36-46.5-1-5.5 37z" fill="#a4afaf"/><path d="M695.6-493.35l10.5 18.5v110l46.5 1v-110.5l7.5-17q-4.4-2.4-8.8-4.15-23.6-9.55-47.2-1.35-4.25 1.45-8.5 3.5m26 37.5v-14.75q0-3.2 2.25-5.5 2.3-2.25 5.5-2.25 3.2 0 5.45 2.25 2.3 2.3 2.3 5.5v14.75z" fill="#95a1a1"/><path d="M721.6-470.6v14.75h15.5v-14.75q0-3.2-2.3-5.5-2.25-2.25-5.45-2.25-3.2 0-5.5 2.25-2.25 2.3-2.25 5.5z" fill="#7e8787"/><path d="M727.1-553.9l-23 57.05q23.6-8.2 47.2 1.35z" fill="#d26f49"/></g></g><g fill="#b8d0a6"><path d="M252.781 108.692q-15.587 7.276-31.891 1.146-15.126-5.702-30.55-10.41-15.844-4.818-32.095-1.56-16.224 3.272-31.024 10.424-14.95 7.193-31.634 7.317-16.671.138-32.244-5.633-15.126-5.633-30.848-9.402-16.4-3.907-32.61.621v30.374h271.056v-30.374q-9.243 3.341-18.162 7.497z"/><path d="M-.002 128.636v38.071H270.94v-38.071z"/></g></svg>