<?xml version="1.0" encoding="UTF-8"?>
<svg width="931.25" height="313.94" version="1.1" viewBox="0 0 271.06 91.381" xmlns="http://www.w3.org/2000/svg">
<g transform="translate(-.0012483)" fill="#d4e7c5">
<path d="m212.69 31.933c-5.441 0.104-10.867 0.91-16.276 2.42v30.374h74.647v-18.277a90.93 90.93 0 0 1-11.118-3.317 266.51 266.51 0 0 0-30.882-9.402c-5.473-1.302-10.929-1.902-16.37-1.798z"/>
<path d="m95.786 29.728c-4.029 0.057-8.078 0.493-12.145 1.308-10.828 2.181-21.181 5.656-31.059 10.424a73.49 73.49 0 0 1-31.669 7.318 90.41 90.41 0 0 1-20.911-2.254v18.214h196.46v-30.375a220.79 220.79 0 0 0-18.182 7.497c-10.403 4.851-21.046 5.232-31.928 1.146a503.28 503.28 0 0 0-30.584-10.41c-6.609-2.008-13.271-2.964-19.986-2.868z"/>
<path d="m35.672 55.624h233.08v24.404h-233.08z"/>
</g>
<g transform="matrix(.26389 -.019182 .019182 .26389 -147.28 182.29)">
<path d="m897-353.35-7.5 25.5h294.4l-12-22.5z" fill="#a4afaf"/>
<path d="m953.95-420.95 3.7 9.65q6.7-0.75 13.75-2.2l1.25-10.3q-9.6 2.1-18.7 2.85m-37.05-3.65 2.7 10.75q6.7 1.8 13.8 2.6l1.85-9.8q-9.5-0.9-18.35-3.55m234.55 2.1q-8.4 0.1-16.5-0.2l2.05 10.1q6.25 0.15 12.7 0.15l1.75-10.05m-50.35-3.45 0.55 10.1q5.75 0.85 11.7 1.55l3.45-9.65q-8-0.8-15.7-2m-24.75 4.85 4.95-8.8q-0.85-0.25-1.7-0.45-7.6-1.9-15.1-3.1l0.95 10.15q5.4 0.9 10.9 2.2m-49.55-4.3q6.95-0.45 14-0.25l2.2-9.95q-10.15-0.4-20.1 0.5l3.9 9.7m-21.25 2.85 0.85-10.2q-8.95 1.75-17.75 4.55l4.4 8.7q6.2-1.8 12.5-3.05z" fill="#707979"/>
<path d="m933.4-411.25q0.9 0.1 1.85 0.2 9.05 0.85 18.7 0.1 1.85-0.15 3.7-0.35l-3.7-9.65q-9.65 0.75-18.7-0.1l-1.85 9.8m-36.4-12.05q9.5 5.55 19.9 8.7 1.3 0.4 2.7 0.75l-2.7-10.75q-10.4-3.15-19.9-8.7v10m252.7 10.85q0.85-0.05 1.75-0.05 10.05-0.1 20.45-0.8v-10q-10.4 0.7-20.45 0.8l-1.75 10.05m-32.9-11.5-3.45 9.65q1.7 0.2 3.45 0.35 8.9 0.85 18.15 1.25 1 0.05 2.05 0.1l-2.05-10.1q-9.25-0.4-18.15-1.25m-35.5-5.95-4.95 8.8q1.6 0.35 3.25 0.75 0.85 0.2 1.7 0.45 9.65 2.3 19.8 3.95 0.25 0.05 0.55 0.1l-0.55-10.1q-10.15-1.65-19.8-3.95m-40.5 4.25q1.1 0 2.2 0.05 10.65 0.4 21.5 2.15 0.45 0.1 0.95 0.15l-0.95-10.15q-10.85-1.75-21.5-2.15l-2.2 9.95m-53.15-2.25q-7.65 2.45-15 4.1l-1.25 10.3q0.6-0.15 1.25-0.3 7.35-1.65 15-4.1 0.5-0.15 1-0.3 2.2-0.7 4.4-1.3l-4.4-8.7q-0.5 0.15-1 0.3m17.9 5.35q0.45-0.1 0.85-0.2 8.2-1.65 16.5-2.35 1.95-0.2 3.9-0.3l-3.9-9.7q-8.3 0.7-16.5 2.35z" fill="#7e8787"/>
<path d="m1006.4-422.75q-0.4 0.1-0.85 0.2-6.3 1.25-12.5 3.05-2.2 0.6-4.4 1.3-0.5 0.15-1 0.3-7.65 2.45-15 4.1-0.65 0.15-1.25 0.3-7.05 1.45-13.75 2.2-1.85 0.2-3.7 0.35-9.65 0.75-18.7-0.1-0.95-0.1-1.85-0.2-7.1-0.8-13.8-2.6-1.4-0.35-2.7-0.75-10.4-3.15-19.9-8.7v69.95l274.9 3v-62.95q-10.4 0.7-20.45 0.8-0.9 0-1.75 0.05-6.45 0-12.7-0.15-1.05-0.05-2.05-0.1-9.25-0.4-18.15-1.25-1.75-0.15-3.45-0.35-5.95-0.7-11.7-1.55-0.3-0.05-0.55-0.1-10.15-1.65-19.8-3.95-0.85-0.25-1.7-0.45-1.65-0.4-3.25-0.75-5.5-1.3-10.9-2.2-0.5-0.05-0.95-0.15-10.85-1.75-21.5-2.15-1.1-0.05-2.2-0.05-7.05-0.2-14 0.25-1.95 0.1-3.9 0.3-8.3 0.7-16.5 2.35m24.3-22.85-7.8-19.5q-8.3 0.7-16.5 2.35l-1.7 20.35q-3.6 0.75-7.2 1.65l-8.85-17.45q-0.5 0.15-1 0.3-7.65 2.45-15 4.1l-2.55 20.55q-4.45 0.9-8.8 1.5l-7.35-19.2q-9.65 0.75-18.7-0.1l-3.7 19.6q-4.75-0.65-9.35-1.75l-5.3-21.4q-10.4-3.15-19.9-8.7v30q9.5 5.55 19.9 8.7 8.85 2.65 18.35 3.55 9.05 0.85 18.7 0.1 9.1-0.75 18.7-2.85 7.35-1.65 15-4.1 0.5-0.15 1-0.3 8.8-2.8 17.75-4.55 8.2-1.65 16.5-2.35 9.95-0.9 20.1-0.5 10.65 0.4 21.5 2.15 7.5 1.2 15.1 3.1 0.85 0.2 1.7 0.45 9.65 2.3 19.8 3.95 7.7 1.2 15.7 2 8.9 0.85 18.15 1.25 8.1 0.3 16.5 0.2 10.05-0.1 20.45-0.8v-30q-10.4 0.7-20.45 0.8l-3.55 20.05q-4.5-0.05-8.9-0.15l-4.05-20.1q-9.25-0.4-18.15-1.25l-6.95 19.2q-3.9-0.5-7.7-1.05l-1.05-20.15q-10.15-1.65-19.8-3.95l-10 17.7q-2.45-0.5-4.9-0.9l-1.9-20.35q-10.85-1.75-21.5-2.15l-4.45 19.9q-3.95-0.05-7.85 0.1z" fill="#95a1a1"/>
</g>
<path d="m63.831 68.297h-6e-3q-0.404 0-0.774-0.099v6.848q0 0.375 0.239 0.651 0.233 0.269 0.563 0.269t0.563-0.269q0.233-0.276 0.233-0.651v-6.854q-0.387 0.105-0.819 0.105z" fill="#9c7b53"/>
<path d="m63.052 66.923v1.275q0.37 0.099 0.774 0.099h6e-3q0.432 0 0.819-0.105v-1.282q-0.387 0.112-0.819 0.112h-6e-3q-0.404 0-0.774-0.099z" fill="#876844"/>
<path d="m67.141 43.155q-0.028-1.8541-0.967-3.172-0.973-1.3581-2.343-1.3581h-6e-3q-1.371 0-2.338 1.3581-0.944 1.3179-0.973 3.172v19.672q0.038 1.8261 0.973 3.1404 0.683 0.95927 1.564 1.2462 0.37 0.11186 0.774 0.11186h6e-3q0.432 0 0.819-0.12766 0.853-0.29544 1.524-1.2304 0.929-1.3131 0.967-3.1404z" fill="#537b3e" stroke-width="1.1026"/>
<path d="m208.65 62.478h-8e-3q-0.538 0-1.03-0.133v9.22q0 0.504 0.318 0.876 0.311 0.363 0.75 0.363t0.75-0.363q0.311-0.372 0.311-0.876v-9.229q-0.515 0.142-1.091 0.142z" fill="#9c7b53"/>
<path d="m207.61 60.629v1.717q0.492 0.133 1.03 0.133h8e-3q0.576 0 1.091-0.142v-1.725q-0.515 0.15-1.091 0.15h-8e-3q-0.538 0-1.03-0.133z" fill="#876844"/>
<path d="m213.06 28.599q-0.038-2.4839-1.287-4.2503-1.295-1.8197-3.12-1.8197h-8e-3q-1.825 0-3.113 1.8197-1.257 1.7664-1.295 4.2503v26.356q0.05 2.4476 1.295 4.2067 0.909 1.2849 2.083 1.6696 0.492 0.15002 1.03 0.15002h8e-3q0.576 0 1.091-0.1718 1.136-0.39563 2.03-1.6491 1.238-1.7604 1.287-4.2067z" fill="#597b3e" stroke-width="1.0999"/>
<path d="m252.9 68.504q-15.587 7.276-31.892 1.146-15.126-5.702-30.55-10.41-15.844-4.818-32.095-1.56-16.224 3.272-31.024 10.424-14.95 7.193-31.634 7.317-16.671 0.138-32.244-5.633-15.126-5.633-30.848-9.402-16.4-3.907-32.61 0.621v30.374h271.06v-30.374q-9.244 3.341-18.162 7.497z" fill="#b8d0a6"/>
<path d="m165.43 59.73h-0.013q-0.939 0-1.799-0.198v13.785q0 0.754 0.556 1.31 0.542 0.542 1.31 0.542 0.767 0 1.31-0.542 0.542-0.556 0.542-1.31v-13.799q-0.9 0.212-1.905 0.212z" fill="#9c7b53"/>
<path d="m163.62 56.965v2.566q0.86 0.198 1.799 0.198h0.013q1.005 0 1.905-0.212v-2.58q-0.9 0.225-1.905 0.225h-0.013q-0.939 0-1.799-0.198z" fill="#876844"/>
<path d="m173.13 9.0688q-0.066-3.7105-2.249-6.3497-2.262-2.7191-5.45-2.7191h-0.013q-3.188 0-5.437 2.7191-2.196 2.6393-2.262 6.3497v39.378q0.087 3.6561 2.262 6.2857 1.587 1.9187 3.638 2.4954 0.86 0.22367 1.799 0.22367h0.013q1.005 0 1.905-0.25631 1.984-0.59121 3.545-2.4628 2.162-2.6296 2.249-6.2857z" fill="#597b3e" stroke-width="1.0996"/>
<path d="m18.916 57.832h-9e-3q-0.627 0-1.201-0.132v9.175q0 0.502 0.371 0.872 0.362 0.361 0.874 0.361t0.874-0.361q0.362-0.37 0.362-0.872v-9.184q-0.6 0.141-1.272 0.141z" fill="#9c7b53"/>
<path d="m17.707 55.992v1.708q0.574 0.132 1.201 0.132h9e-3q0.671 0 1.272-0.141v-1.717q-0.6 0.15-1.272 0.15h-9e-3q-0.627 0-1.201-0.132z" fill="#876844"/>
<path d="m24.056 24.11q-0.044-2.4691-1.501-4.2252-1.51-1.8092-3.638-1.8092h-9e-3q-2.128 0-3.629 1.8092-1.466 1.7561-1.51 4.2252v26.201q0.058 2.4329 1.51 4.1817 1.06 1.2775 2.428 1.6606 0.574 0.14866 1.201 0.14866h9e-3q0.671 0 1.272-0.17041 1.325-0.394 2.366-1.6388 1.443-1.75 1.501-4.1817z" fill="#597b3e" stroke-width="1.0994"/>
</svg>
