<!--version="1.0" encoding="UTF-8"--><svg width="931.25" height="313.94" version="1.1" viewBox="0 0 271.06 91.381" xmlns="http://www.w3.org/2000/svg"><g transform="translate(-.0012483)" fill="#d4e7c5"><path d="M212.7 32a65 65 0 00-16.3 2.4v30.3h74.7V46.5A91 91 0 01260 43a266.5 266.5 0 00-31-9.3A65 65 0 00212.8 32z"/><path d="M95.8 29.7c-4 0-8 .5-12.2 1.3a130.4 130.4 0 00-31 10.5 73.5 73.5 0 01-31.7 7.3 90.4 90.4 0 01-21-2.3v18.2h196.5V34.4a220.8 220.8 0 00-18.2 7.5 39.7 39.7 0 01-32 1 503.3 503.3 0 00-30.5-10.4c-6.6-2-13.3-3-20-2.9z"/><path d="M35.7 55.6h233V80h-233z"/></g><g transform="matrix(.26389 -.019182 .019182 .26389 -147.28 182.29)"><path d="m897-353.4-7.5 25.5H1184l-12-22.4z" fill="#a4afaf"/><path d="m954-421 3.7 9.7q6.7-.8 13.7-2.2l1.2-10.3q-9.5 2-18.6 2.8m-37-3.6 2.6 10.8q6.7 1.7 13.8 2.5l1.9-9.8q-9.5-1-18.4-3.6m234.5 2q-8.4.2-16.5 0l2 10q6.3.2 12.7.2l1.8-10M1101-426l.7 10.2 11.7 1.5 3.4-9.6q-8-.7-15.7-2m-24.6 5 5-9-1.8-.3q-7.6-2-15-3.1l.9 10q5.4 1 10.9 2.3m-49.6-4.4q7-.4 14-.2l2.2-10q-10.1-.4-20 .5l3.8 9.6m-21.2 2.9.8-10.2q-9 1.7-17.8 4.5l4.5 8.7q6.3-1.8 12.6-3z" fill="#707979"/><path d="M933.4-411.2q1 0 1.9.2 9 .8 18.7 0 1.8 0 3.7-.3L954-421q-9.7.8-18.7 0l-2 9.8m-36.3-12q9.5 5.5 20 8.6l2.6.8-2.7-10.8q-10.5-3.1-20-8.7v10m252.7 10.9h1.8q10-.2 20.4-1v-10q-10.5.8-20.6 1l-1.7 10m-33-11.5-3.4 9.7 3.5.3q9 1 18.1 1.3h2l-2-10q-9.3-.4-18.2-1.2m-35.5-6-5 9 3.3.6 1.7.5q9.6 2.4 19.8 4l.6.2-.5-10.1q-10-1.6-19.7-4m-40.5 4.4h2.2q10.6.4 21.5 2.2h1l-1-10q-10.9-1.8-21.5-2.2l-2.2 10m-53.2-2.3q-7.6 2.6-15 4.2l-1.2 10.3 1.2-.3q7.4-1.6 15-4l1-.4 4.4-1.3-4.4-8.7-1 .3m18 5.5.8-.2q8.2-1.7 16.5-2.4 1.8-.3 3.8-.4l-4-9.7q-8.2.6-16.4 2.2z" fill="#7e8787"/><path d="m1006.4-422.8-.9.2q-6.2 1.3-12.4 3l-4.3 1.4-1 .3q-7.7 2.5-15 4.2l-1.3.3q-7 1.4-13.8 2.2l-3.6.3q-9.7.8-18.7 0l-2-.3q-7-.8-13.7-2.6-1.4-.2-2.7-.6-10.5-3.2-20-8.7v70l275 3v-63q-10.5.7-20.5.8H1137l-2-.2q-9.3-.4-18.2-1.3-1.8 0-3.5-.3-6-.7-11.6-1.6h-.6q-10-1.6-19.7-4l-1.7-.4-3.2-.7q-5.5-1.4-11-2.3l-1-.2q-10.7-1.7-21.4-2-1-.2-2.2-.2-7-.2-14 .3-2 0-4 .3-8.2.6-16.4 2.2m24.3-22.8L1023-465q-8.4.6-16.6 2.2l-1.7 20.4-7.2 1.6-8.8-17.4-1 .3q-7.7 2.5-15 4.2l-2.6 20.5q-4.3 1-8.7 1.5L954-451q-9.7.8-18.7 0l-3.7 19.5q-4.8-.6-9.4-1.7l-5.3-21.4q-10.5-3.2-20-8.7v30q9.5 5.5 20 8.7 8.8 2.6 18.3 3.5 9 .8 18.7 0 9-.7 18.7-2.8 7.3-1.7 15-4l1-.4q8.8-2.8 17.7-4.6 8.2-1.6 16.5-2.3 9.9-1 20-.6 10.7.4 21.5 2.1 7.5 1.2 15 3.1l1.8.5q9.7 2.4 19.8 4 7.8 1.2 15.8 2 9 1 18.2 1.3 8 .3 16.5.2 10 0 20.4-.8v-30q-10.5.7-20.5.8l-3.6 20h-9l-4-20.2q-9.3-.4-18.2-1.3l-7 19.2-7.6-1-1-20.2q-10.2-1.6-20-4l-10 17.8-4.8-1-2-20.3q-10.8-1.7-21.4-2l-4.4 19.8h-8z" fill="#95a1a1"/></g><path d="M63.8 68.3h-.7V75q0 .4.3.7.2.3.6.3t.4-.3q.2-.3.2-.7v-6.8h-.8z" fill="#9c7b53"/><path d="M63 67v1.2h1.7v-1.3H63z" fill="#876844"/><path d="M67.1 43.2q.1-2-.8-3.2-1-1.4-2.4-1.4-1.3 0-2.3 1.4-1 1.3-1 3.2v19.6q0 1.9 1 3.2.7 1 1.6 1.2l.8.1h.8q1-.4 1.6-1.3 1-1.3 1-3.2z" fill="#537b3e"/><path d="m208.6 62.5-1-.2v9.3q0 .5.3.8.2.4.7.4t.7-.4q.3-.3.3-.8v-9.3l-1 .2z" fill="#9c7b53"/><path d="M207.6 60.6v1.7l1 .2q.6 0 1.1-.2v-1.7l-1 .2q-.6 0-1-.2z" fill="#876844"/><path d="M213 28.6q0-2.5-1.2-4.3-1.3-1.8-3.1-1.8-1.9 0-3.2 1.8-1.2 1.8-1.3 4.3V55q0 2.4 1.3 4.2 1 1.2 2.1 1.6l1 .2q.6 0 1.1-.2 1.2-.4 2-1.6 1.3-1.8 1.4-4.2z" fill="#597b3e"/><path d="M253 68.5q-15.7 7.3-32 1.1Q206 64 190.5 59.2q-15.9-4.8-32.1-1.5Q142 61 127.4 68q-15 7.3-31.7 7.4-16.7.2-32.2-5.6-15.2-5.6-30.9-9.4-16.4-4-32.6.6v30.4h271V61q-9.2 3.3-18 7.5z" fill="#b8d0a6"/><path d="M165.4 59.7q-1 0-1.8-.2v13.8q0 .8.6 1.3.5.6 1.3.6.8 0 1.3-.6.5-.5.5-1.3V59.5q-.9.2-1.9.2z" fill="#9c7b53"/><path d="M163.6 57v2.5l1.8.2 2-.2V57l-2 .2q-1 0-1.8-.2z" fill="#876844"/><path d="M173.1 9q0-3.6-2.1-6.3-2.4-2.7-5.6-2.7-3.2 0-5.4 2.7t-2.3 6.4v39.4q.1 3.7 2.3 6.3 1.6 2 3.6 2.5.9.3 1.8.3 1 0 2-.3 2-.6 3.5-2.5 2-2.6 2.1-6.3z" fill="#597b3e"/><path d="M19 57.8h-1.3v9q0 .6.4 1 .4.3 1 .3t.8-.3q.4-.3.4-.8v-9.3l-1.3.1z" fill="#9c7b53"/><path d="M17.7 56v1.7l1.2.1 1.2-.1V56l-1.3.1q-.7.1-1.3 0z" fill="#876844"/><path d="M24 24.1q0-2.4-1.4-4.1-1.6-2-3.7-2-2.2 0-3.7 1.9-1.5 1.6-1.5 4.1v26.3q0 2.4 1.5 4.2 1 1.3 2.4 1.7h2.4q1.3-.5 2.4-1.7 1.4-1.8 1.5-4.2z" fill="#597b3e"/></svg>