<svg xmlns="http://www.w3.org/2000/svg" width="931.247" height="313.948" viewBox="0 0 271.061 91.382" xmlns:v="https://vecta.io/nano"><g fill="#d4e7c5"><path d="M212.692 31.933c-5.441.104-10.867.91-16.276 2.42v30.374h74.647V46.45a90.93 90.93 0 0 1-11.118-3.317 266.51 266.51 0 0 0-30.882-9.402c-5.473-1.302-10.929-1.902-16.37-1.798z"/><path d="M95.786 29.728c-4.029.057-8.078.493-12.145 1.308-10.828 2.181-21.181 5.656-31.059 10.424a73.49 73.49 0 0 1-31.669 7.318A90.41 90.41 0 0 1 .002 46.524v18.214h196.464V34.363c-6.169 2.228-12.236 4.729-18.182 7.497-10.403 4.851-21.046 5.232-31.928 1.146a503.28 503.28 0 0 0-30.584-10.41c-6.609-2.008-13.271-2.964-19.986-2.868z"/><path d="M35.672 55.624H268.75v24.404H35.672z"/></g><g transform="matrix(.263887 -.019182 .019182 .263887 -147.27975 182.29421)"><path fill="#a4afaf" d="M897-353.35l-7.5 25.5h294.4l-12-22.5z"/><path fill="#707979" d="M953.95-420.95l3.7 9.65q6.7-.75 13.75-2.2l1.25-10.3q-9.6 2.1-18.7 2.85m-37.05-3.65l2.7 10.75q6.7 1.8 13.8 2.6l1.85-9.8q-9.5-.9-18.35-3.55m234.55 2.1q-8.4.1-16.5-.2l2.05 10.1q6.25.15 12.7.15l1.75-10.05m-50.35-3.45l.55 10.1q5.75.85 11.7 1.55l3.45-9.65q-8-.8-15.7-2m-24.75 4.85l4.95-8.8q-.85-.25-1.7-.45-7.6-1.9-15.1-3.1l.95 10.15q5.4.9 10.9 2.2m-49.55-4.3q6.95-.45 14-.25l2.2-9.95q-10.15-.4-20.1.5l3.9 9.7m-21.25 2.85l.85-10.2q-8.95 1.75-17.75 4.55l4.4 8.7q6.2-1.8 12.5-3.05z"/><path fill="#7e8787" d="M933.4-411.25q.9.1 1.85.2 9.05.85 18.7.1 1.85-.15 3.7-.35l-3.7-9.65q-9.65.75-18.7-.1l-1.85 9.8M897-423.3q9.5 5.55 19.9 8.7 1.3.4 2.7.75l-2.7-10.75q-10.4-3.15-19.9-8.7v10m252.7 10.85q.85-.05 1.75-.05 10.05-.1 20.45-.8v-10q-10.4.7-20.45.8l-1.75 10.05m-32.9-11.5l-3.45 9.65q1.7.2 3.45.35 8.9.85 18.15 1.25 1 .05 2.05.1l-2.05-10.1q-9.25-.4-18.15-1.25m-35.5-5.95l-4.95 8.8q1.6.35 3.25.75.85.2 1.7.45 9.65 2.3 19.8 3.95.25.05.55.1l-.55-10.1q-10.15-1.65-19.8-3.95m-40.5 4.25q1.1 0 2.2.05 10.65.4 21.5 2.15.45.1.95.15l-.95-10.15q-10.85-1.75-21.5-2.15l-2.2 9.95m-53.15-2.25q-7.65 2.45-15 4.1l-1.25 10.3q.6-.15 1.25-.3 7.35-1.65 15-4.1.5-.15 1-.3 2.2-.7 4.4-1.3l-4.4-8.7q-.5.15-1 .3m17.9 5.35q.45-.1.85-.2 8.2-1.65 16.5-2.35 1.95-.2 3.9-.3l-3.9-9.7q-8.3.7-16.5 2.35z"/><path fill="#95a1a1" d="M1006.4-422.75q-.4.1-.85.2-6.3 1.25-12.5 3.05-2.2.6-4.4 1.3-.5.15-1 .3-7.65 2.45-15 4.1-.65.15-1.25.3-7.05 1.45-13.75 2.2-1.85.2-3.7.35-9.65.75-18.7-.1-.95-.1-1.85-.2-7.1-.8-13.8-2.6-1.4-.35-2.7-.75-10.4-3.15-19.9-8.7v69.95l274.9 3v-62.95q-10.4.7-20.45.8-.9 0-1.75.05-6.45 0-12.7-.15-1.05-.05-2.05-.1-9.25-.4-18.15-1.25-1.75-.15-3.45-.35-5.95-.7-11.7-1.55-.3-.05-.55-.1-10.15-1.65-19.8-3.95-.85-.25-1.7-.45-1.65-.4-3.25-.75-5.5-1.3-10.9-2.2-.5-.05-.95-.15-10.85-1.75-21.5-2.15-1.1-.05-2.2-.05-7.05-.2-14 .25-1.95.1-3.9.3-8.3.7-16.5 2.35m24.3-22.85l-7.8-19.5q-8.3.7-16.5 2.35l-1.7 20.35q-3.6.75-7.2 1.65l-8.85-17.45q-.5.15-1 .3-7.65 2.45-15 4.1l-2.55 20.55q-4.45.9-8.8 1.5l-7.35-19.2q-9.65.75-18.7-.1l-3.7 19.6q-4.75-.65-9.35-1.75l-5.3-21.4q-10.4-3.15-19.9-8.7v30q9.5 5.55 19.9 8.7 8.85 2.65 18.35 3.55 9.05.85 18.7.1 9.1-.75 18.7-2.85 7.35-1.65 15-4.1.5-.15 1-.3 8.8-2.8 17.75-4.55 8.2-1.65 16.5-2.35 9.95-.9 20.1-.5 10.65.4 21.5 2.15 7.5 1.2 15.1 3.1.85.2 1.7.45 9.65 2.3 19.8 3.95 7.7 1.2 15.7 2 8.9.85 18.15 1.25 8.1.3 16.5.2 10.05-.1 20.45-.8v-30q-10.4.7-20.45.8l-3.55 20.05q-4.5-.05-8.9-.15l-4.05-20.1q-9.25-.4-18.15-1.25l-6.95 19.2q-3.9-.5-7.7-1.05l-1.05-20.15q-10.15-1.65-19.8-3.95l-10 17.7q-2.45-.5-4.9-.9l-1.9-20.35q-10.85-1.75-21.5-2.15l-4.45 19.9q-3.95-.05-7.85.1z"/></g><path fill="#9c7b53" d="M63.832 68.297h-.006q-.404 0-.774-.099v6.848q0 .375.239.651.233.269.563.269.33 0 .563-.269.233-.276.233-.651v-6.854q-.387.105-.819.105z"/><path fill="#876844" d="M63.053 66.923v1.275q.37.099.774.099h.006q.432 0 .819-.105V66.91q-.387.112-.819.112h-.006q-.404 0-.774-.099z"/><path fill="#597b3e" d="M63.053 62.139q-.882-.237-1.564-1.025-.935-1.08-.973-2.583v4.745q.023 1.531.973 2.622.683.789 1.564 1.025.37.099.774.099h.006q.432 0 .819-.112.853-.243 1.524-1.012.944-1.091.967-2.622v-4.745q-.038 1.502-.967 2.583-.671.769-1.524 1.012-.387.105-.819.105h-.006q-.404 0-.774-.092z"/><path fill="#648c44" d="M67.142 42.351q-.028-1.525-.967-2.609-.973-1.117-2.343-1.117h-.006q-1.371 0-2.338 1.117-.944 1.084-.973 2.609v16.18q.038 1.502.973 2.583.683.789 1.564 1.025.37.092.774.092h.006q.432 0 .819-.105.853-.243 1.524-1.012.929-1.08.967-2.583z"/><path fill="#9c7b53" d="M208.649 62.478h-.008q-.538 0-1.03-.133v9.22q0 .504.318.876.311.363.75.363.439 0 .75-.363.311-.372.311-.876v-9.229q-.515.142-1.091.142z"/><path fill="#876844" d="M207.612 60.629v1.717q.492.133 1.03.133h.008q.576 0 1.091-.142v-1.725q-.515.15-1.091.15h-.008q-.538 0-1.03-.133z"/><path fill="#597b3e" d="M207.612 54.188q-1.174-.319-2.083-1.38-1.245-1.455-1.295-3.477v6.388q.03 2.062 1.295 3.53.909 1.062 2.083 1.38.492.133 1.03.133h.008q.576 0 1.091-.15 1.136-.327 2.03-1.363 1.257-1.469 1.287-3.53V49.33q-.05 2.023-1.287 3.477-.894 1.035-2.03 1.363-.515.142-1.091.142h-.008q-.538 0-1.03-.124z"/><path fill="#648c44" d="M213.057 27.546q-.038-2.053-1.287-3.513-1.295-1.504-3.12-1.504h-.008q-1.825 0-3.113 1.504-1.257 1.46-1.295 3.513V49.33q.05 2.023 1.295 3.477.909 1.062 2.083 1.38.492.124 1.03.124h.008q.576 0 1.091-.142 1.136-.327 2.03-1.363 1.238-1.455 1.287-3.477z"/><path fill="#b8d0a6" d="M252.898 68.504q-15.587 7.276-31.892 1.146-15.126-5.702-30.55-10.41-15.844-4.818-32.095-1.56-16.224 3.272-31.024 10.424-14.95 7.193-31.634 7.317-16.671.138-32.244-5.633-15.126-5.633-30.848-9.402-16.4-3.907-32.61.621v30.374h271.06V61.007q-9.244 3.341-18.162 7.497z"/><path fill="#9c7b53" d="M165.433 59.73h-.013q-.939 0-1.799-.198v13.785q0 .754.556 1.31.542.542 1.31.542.767 0 1.31-.542.542-.556.542-1.31V59.518q-.9.212-1.905.212z"/><path fill="#876844" d="M163.621 56.965v2.566q.86.198 1.799.198h.013q1.005 0 1.905-.212v-2.58q-.9.225-1.905.225h-.013q-.939 0-1.799-.198z"/><path fill="#597b3e" d="M163.621 47.334q-2.051-.476-3.638-2.064-2.175-2.175-2.262-5.199v9.551q.053 3.082 2.262 5.278 1.587 1.587 3.638 2.064.86.198 1.799.198h.013q1.005 0 1.905-.225 1.984-.489 3.545-2.037 2.196-2.196 2.249-5.278v-9.551q-.087 3.024-2.249 5.199-1.561 1.548-3.545 2.037-.9.212-1.905.212h-.013q-.939 0-1.799-.185z"/><path fill="#648c44" d="M173.132 7.501q-.066-3.069-2.249-5.252Q168.621 0 165.433 0h-.013q-3.188 0-5.437 2.249-2.196 2.183-2.262 5.252v32.57q.087 3.024 2.262 5.199 1.587 1.587 3.638 2.064.86.185 1.799.185h.013q1.005 0 1.905-.212 1.984-.489 3.545-2.037 2.162-2.175 2.249-5.199z"/><path fill="#9c7b53" d="M18.917 57.832h-.009q-.627 0-1.201-.132v9.175q0 .502.371.872.362.361.874.361.512 0 .874-.361.362-.37.362-.872v-9.184q-.6.141-1.272.141z"/><path fill="#876844" d="M17.708 55.992V57.7q.574.132 1.201.132h.009q.671 0 1.272-.141v-1.717q-.6.15-1.272.15h-.009q-.627 0-1.201-.132z"/><path fill="#597b3e" d="M17.708 49.582q-1.369-.317-2.428-1.374-1.452-1.448-1.51-3.46v6.357q.035 2.052 1.51 3.513 1.06 1.057 2.428 1.374.574.132 1.201.132h.009q.671 0 1.272-.15 1.325-.326 2.366-1.356 1.466-1.462 1.501-3.513v-6.357q-.058 2.013-1.501 3.46-1.042 1.03-2.366 1.356-.6.141-1.272.141h-.009q-.627 0-1.201-.123z"/><path fill="#648c44" d="M24.057 23.069q-.044-2.043-1.501-3.496-1.51-1.497-3.638-1.497h-.009q-2.128 0-3.629 1.497-1.466 1.453-1.51 3.496v21.679q.058 2.013 1.51 3.46 1.06 1.057 2.428 1.374.574.123 1.201.123h.009q.671 0 1.272-.141 1.325-.326 2.366-1.356 1.443-1.448 1.501-3.46z"/></svg>