<svg xmlns="http://www.w3.org/2000/svg" width="931.247" height="313.948" viewBox="0 0 271.061 91.382"><g fill="#d4e7c5"><path d="m213 32-17 2v31h75V46a91 91 0 0 1-11-3 267 267 0 0 0-31-9c-5-2-11-2-16-2z"/><path d="m96 30-12 1c-11 2-22 6-31 10a73 73 0 0 1-32 8 90 90 0 0 1-21-2v18h196V34a221 221 0 0 0-18 8c-10 5-21 5-32 1a503 503 0 0 0-30-10c-7-2-13-3-20-3z"/><path d="M36 56h233v24H36z"/></g><g transform="matrix(.263887 -.019182 .019182 .263887 -147.27975 182.29421)"><path fill="#a4afaf" d="m897-353-8 25h295l-12-22z"/><path fill="#707979" d="m954-421 4 10 13-3 2-10-19 3m-37-4 3 11 13 3 2-10-18-4m234 3-16-1 2 10 13 1 1-10m-50-4 1 10 11 2 4-10-16-2m-25 5 5-9h-1l-15-3v10l11 2m-49-4 14-1 2-10-20 1 4 10m-21 2v-10l-17 5 4 9 13-4z"/><path fill="#7e8787" d="M933-411h25l-4-10h-19l-2 10m-36-12 20 8 3 1-3-11-20-8v10m253 11h1l21-1v-10l-21 1-1 10m-33-12-4 10h4l18 1h2l-2-10-18-1m-36-6-5 9 4 1h1l20 4h1l-1-10-20-4m-40 4h2l21 3h1l-1-10-21-3-2 10m-53-2-15 4-2 11 2-1 15-4h1l4-1-4-9h-1m18 5 17-2h4l-4-10-17 2z"/><path fill="#95a1a1" d="m1006-423-13 4-4 1h-1l-15 4h-2l-13 3h-25l-13-3-3-1-20-8v70l275 3v-63h-21l-1 1-13-1h-2l-18-1h-4l-11-2h-1l-20-4h-1l-4-1-11-2-22-3h-2l-14 1h-4l-17 2m25-23-8-19-17 2-1 21-7 1-9-17h-1l-15 4-3 21-9 1-7-19h-19l-3 20-10-2-5-22-20-8v30l20 8 18 4h19l19-3 15-4h1l17-5 17-2 20-1 22 3 15 3h1l20 4 16 2 18 1h37v-30h-21l-3 21-9-1-4-20-18-1-7 19-8-1-1-20-20-4-10 18-5-1-1-20-22-3-4 20h-8z"/></g><path fill="#9c7b53" d="M64 68h-1v8h1l1-1v-7h-1z"/><path fill="#876844" d="M63 67v1h2v-1h-2z"/><path fill="#597b3e" d="m63 62-2-1v-2 7l2 1h2l1-1 1-3v-4l-1 2-1 1h-2z"/><path fill="#648c44" d="m67 42-1-2-2-1-3 1v21l2 1h2l1-1 1-2z"/><path fill="#9c7b53" d="M209 62h-1v10l1 1v-1h1V62h-1z"/><path fill="#876844" d="M208 61v1h2v-1h-2z"/><path fill="#597b3e" d="m208 54-2-1-2-4v7q0 2 2 3l2 2h2l2-2 1-3v-7l-1 4-2 1h-2z"/><path fill="#648c44" d="m213 28-1-4-3-1-3 1q-2 1-2 4v21l2 4 2 1h2l2-1 1-4z"/><path fill="#b8d0a6" d="M253 69q-16 7-32 1l-31-11q-15-5-32-1-16 3-31 10t-31 7q-17 1-33-5L33 60q-17-4-33 1v30h271V61l-18 8z"/><path fill="#9c7b53" d="M165 60h-1v15h3V60h-2z"/><path fill="#876844" d="M164 57v3h3v-3h-3z"/><path fill="#597b3e" d="m164 47-4-2q-2-2-2-5v10q0 3 2 5l4 2h3l4-2q2-2 2-5V40q0 3-2 5l-4 2-2 1-1-1z"/><path fill="#648c44" d="M173 8q0-4-2-6t-6-2q-3 0-5 2t-2 6v32q0 3 2 5l4 2 1 1 2-1 4-2q2-2 2-5z"/><path fill="#9c7b53" d="M19 58h-1v10h2V58h-1z"/><path fill="#876844" d="M18 56v2h2v-2h-2z"/><path fill="#597b3e" d="m18 50-3-2-1-3v6l1 4 3 1h2l3-1 1-4v-6l-1 3-3 2h-2z"/><path fill="#648c44" d="m24 23-1-3-4-2-4 2-1 3v22l1 3 3 2h2l3-2 1-3z"/></svg>